<svg viewBox="0 0 512 512" xmlns="http://www.w3.org/2000/svg">
  <defs>
    <linearGradient id="bgGrad" x1="0%" y1="0%" x2="100%" y2="100%">
      <stop offset="0%" style="stop-color:#1F4E79;stop-opacity:1" />
      <stop offset="100%" style="stop-color:#2E75B6;stop-opacity:1" />
    </linearGradient>
    <linearGradient id="bookGrad" x1="0%" y1="0%" x2="100%" y2="100%">
      <stop offset="0%" style="stop-color:#FFFFFF;stop-opacity:1" />
      <stop offset="100%" style="stop-color:#D6E4F0;stop-opacity:1" />
    </linearGradient>
  </defs>
  <!-- Background circle -->
  <circle cx="256" cy="256" r="256" fill="url(#bgGrad)" />
  <!-- Open book -->
  <g transform="translate(256, 240)">
    <path d="M-140 -60 Q-140 -80 -120 -85 L-10 -90 L-10 80 Q-60 75 -120 70 Q-140 65 -140 45 Z" fill="url(#bookGrad)" opacity="0.95"/>
    <path d="M140 -60 Q140 -80 120 -85 L10 -90 L10 80 Q60 75 120 70 Q140 65 140 45 Z" fill="url(#bookGrad)" opacity="0.95"/>
    <rect x="-10" y="-90" width="20" height="170" fill="#D6E4F0" rx="4"/>
    <line x1="-120" y1="-40" x2="-20" y2="-44" stroke="#2E75B6" stroke-width="6" stroke-linecap="round" opacity="0.4"/>
    <line x1="-120" y1="-15" x2="-20" y2="-18" stroke="#2E75B6" stroke-width="6" stroke-linecap="round" opacity="0.4"/>
    <line x1="-120" y1="10" x2="-20" y2="8" stroke="#2E75B6" stroke-width="6" stroke-linecap="round" opacity="0.4"/>
    <line x1="20" y1="-44" x2="120" y2="-40" stroke="#2E75B6" stroke-width="6" stroke-linecap="round" opacity="0.4"/>
    <line x1="20" y1="-18" x2="120" y2="-15" stroke="#2E75B6" stroke-width="6" stroke-linecap="round" opacity="0.4"/>
    <line x1="20" y1="8" x2="120" y2="10" stroke="#2E75B6" stroke-width="6" stroke-linecap="round" opacity="0.4"/>
  </g>
  <!-- Two people connecting -->
  <circle cx="176" cy="140" r="35" fill="#FFFFFF" opacity="0.9"/>
  <path d="M176 180 Q130 195 125 230" stroke="#FFFFFF" stroke-width="12" fill="none" stroke-linecap="round" opacity="0.9"/>
  <circle cx="336" cy="140" r="35" fill="#FFFFFF" opacity="0.9"/>
  <path d="M336 180 Q382 195 387 230" stroke="#FFFFFF" stroke-width="12" fill="none" stroke-linecap="round" opacity="0.9"/>
  <path d="M210 130 Q256 90 302 130" stroke="#D6E4F0" stroke-width="8" fill="none" stroke-linecap="round" stroke-dasharray="10,8"/>
</svg>
